<?xml version="1.0" encoding="utf-8"?>
<!-- Generator: Adobe Illustrator 16.0.3, SVG Export Plug-In . SVG Version: 6.00 Build 0)  -->
<!DOCTYPE svg PUBLIC "-//W3C//DTD SVG 1.1//EN" "http://www.w3.org/Graphics/SVG/1.1/DTD/svg11.dtd">
<svg version="1.1" id="Layer_1" xmlns="http://www.w3.org/2000/svg" xmlns:xlink="http://www.w3.org/1999/xlink" x="0px" y="0px"
	 width="264.4px" height="60.648px" viewBox="0 0 264.4 60.648" enable-background="new 0 0 264.4 60.648" xml:space="preserve">
<path fill="#FFFFFF" d="M53.611,41.98c-4.521,0-8.371-1.595-11.553-4.771c-3.185-3.184-4.773-7.039-4.773-11.553
	c0-4.521,1.59-8.371,4.773-11.553c3.182-3.187,7.03-4.777,11.553-4.777c4.516,0,8.367,1.592,11.551,4.777
	c3.184,3.182,4.771,7.03,4.771,11.553c0,4.514-1.588,8.369-4.771,11.553C61.979,40.387,58.127,41.98,53.611,41.98z M60.207,32.252
	c1.82-1.824,2.73-4.02,2.73-6.596c0-2.578-0.91-4.775-2.73-6.6c-1.822-1.822-4.022-2.73-6.596-2.73c-2.578,0-4.773,0.908-6.6,2.73
	c-1.818,1.823-2.73,4.021-2.73,6.6c0,2.576,0.912,4.771,2.73,6.596c1.826,1.82,4.021,2.734,6.6,2.734
	C56.184,34.986,58.385,34.072,60.207,32.252z"/>
<path fill="#FFFFFF" d="M90.927,41.98c-4.521,0-8.373-1.595-11.549-4.771C76.191,34.025,74.6,30.17,74.6,25.656
	c0-4.521,1.592-8.371,4.778-11.553c3.176-3.187,7.027-4.777,11.549-4.777c4.516,0,8.369,1.592,11.549,4.777
	c3.184,3.182,4.774,7.03,4.774,11.553c0,4.514-1.592,8.369-4.774,11.553C99.297,40.387,95.443,41.98,90.927,41.98z M97.523,32.252
	c1.818-1.824,2.731-4.02,2.731-6.596c0-2.578-0.913-4.775-2.731-6.6c-1.824-1.822-4.025-2.73-6.596-2.73
	c-2.578,0-4.777,0.908-6.602,2.73c-1.816,1.823-2.729,4.021-2.729,6.6c0,2.576,0.912,4.771,2.729,6.596
	c1.824,1.82,4.023,2.734,6.602,2.734C93.498,34.986,95.699,34.072,97.523,32.252z"/>
<path fill="#F9B517" d="M16.326,41.98c-4.52,0-8.369-1.595-11.551-4.771C1.59,34.025,0,30.17,0,25.656
	c0-4.521,1.59-8.371,4.775-11.553c3.182-3.187,7.031-4.777,11.551-4.777c4.518,0,8.369,1.592,11.551,4.777
	c3.185,3.182,4.775,7.03,4.775,11.553c0,4.514-1.592,8.369-4.775,11.553C24.695,40.387,20.844,41.98,16.326,41.98z M22.92,32.252
	c1.822-1.824,2.734-4.02,2.734-6.596c0-2.578-0.912-4.775-2.734-6.6c-1.817-1.822-4.02-2.73-6.594-2.73
	c-2.572,0-4.771,0.908-6.596,2.73C7.91,20.881,7,23.078,7,25.656c0,2.576,0.91,4.771,2.73,6.596c1.824,1.82,4.022,2.734,6.596,2.734
	C18.9,34.986,21.102,34.072,22.92,32.252z"/>
<path fill="#FFFFFF" d="M144.564,25.656c0,4.514-1.592,8.369-4.771,11.553c-3.184,3.179-7.033,4.771-11.553,4.771
	s-8.369-1.595-11.551-4.771c-3.185-3.184-4.773-7.039-4.773-11.553c0-4.521,1.59-8.371,4.773-11.553
	c3.182-3.187,7.031-4.777,11.551-4.777c3.521,0,6.633,0.959,9.33,2.879V0h6.994V25.656z M134.834,32.252
	c1.826-1.824,2.736-4.02,2.736-6.596c0-2.578-0.91-4.775-2.736-6.6c-1.819-1.822-4.02-2.73-6.594-2.73
	c-2.576,0-4.775,0.908-6.594,2.73c-1.824,1.823-2.734,4.021-2.734,6.6c0,2.576,0.91,4.771,2.734,6.596
	c1.817,1.82,4.018,2.734,6.594,2.734C130.814,34.986,133.014,34.072,134.834,32.252z"/>
<path fill="#FFFFFF" d="M157.117,0v41.98h-7V0H157.117z"/>
<path fill="#FFFFFF" d="M178.105,41.98c-4.521,0-8.369-1.595-11.554-4.771c-3.184-3.184-4.772-7.039-4.772-11.553
	c0-4.521,1.59-8.371,4.772-11.553c3.185-3.187,7.031-4.777,11.554-4.777c4.52,0,8.369,1.592,11.551,4.777
	c3.182,3.182,4.775,7.03,4.775,11.553c0,4.514-1.595,8.369-4.775,11.553C186.475,40.387,182.625,41.98,178.105,41.98z
	 M184.699,32.252c1.82-1.824,2.732-4.02,2.732-6.596c0-2.578-0.912-4.775-2.732-6.6c-1.82-1.822-4.021-2.73-6.594-2.73
	c-2.578,0-4.775,0.908-6.595,2.73c-1.825,1.823-2.735,4.021-2.735,6.6c0,2.576,0.91,4.771,2.735,6.596
	c1.818,1.82,4.017,2.734,6.595,2.734C180.677,34.986,182.879,34.072,184.699,32.252z"/>
<path fill="#FFFFFF" d="M215.418,41.98c-4.518,0-8.366-1.595-11.549-4.771c-3.18-3.184-4.775-7.039-4.775-11.553
	c0-4.521,1.597-8.371,4.775-11.553c3.183-3.187,7.031-4.777,11.549-4.777c4.521,0,8.371,1.592,11.556,4.777
	c3.18,3.182,4.772,7.03,4.772,11.553c0,4.514-1.594,8.369-4.772,11.553C223.789,40.387,219.939,41.98,215.418,41.98z
	 M222.016,32.252c1.823-1.824,2.733-4.02,2.733-6.596c0-2.578-0.91-4.775-2.733-6.6c-1.82-1.822-4.021-2.73-6.599-2.73
	c-2.574,0-4.771,0.908-6.594,2.73c-1.82,1.823-2.731,4.021-2.731,6.6c0,2.576,0.911,4.771,2.731,6.596
	c1.822,1.82,4.02,2.734,6.594,2.734C217.996,34.986,220.195,34.072,222.016,32.252z"/>
<path fill="#FFFFFF" d="M243.41,24.34l12.643-15.014h8.349l-15.6,19.279l15.6,13.375h-9.334l-11.656-9.328v9.328h-7V0h7
	L243.41,24.34L243.41,24.34z"/>
<path fill="#F9B517" d="M25.639,44.389c0.002,0.045,0.016,0.086,0.016,0.139c0,2.578-0.912,4.772-2.734,6.594
	c-1.817,1.822-4.02,2.736-6.594,2.736c-2.572,0-4.771-0.914-6.596-2.736C7.91,49.301,7,47.105,7,44.527
	c0-0.053,0.009-0.094,0.012-0.139H0.009c0,0.045-0.009,0.09-0.009,0.139c0,4.516,1.59,8.369,4.775,11.551
	c3.182,3.185,7.031,4.773,11.551,4.773c4.518,0,8.369-1.591,11.551-4.773c3.185-3.182,4.775-7.035,4.775-11.551
	c0-0.049-0.008-0.094-0.008-0.139L25.639,44.389L25.639,44.389z"/>
<g>
	<path fill="#FFFFFF" d="M95.816,57.177h1.104v3.472h-1.379v-2.144h-6v2.144h-1.375v-3.472h0.978c0.512-0.704,0.77-1.696,0.77-2.959
		v-3.715h5.902V57.177z M94.443,57.177v-5.377h-3.154v2.418c0,1.197-0.19,2.177-0.561,2.959H94.443z"/>
	<path fill="#FFFFFF" d="M99.07,55.145c0.275,1.424,1.379,2.258,2.896,2.258c1.057,0,1.825-0.385,2.305-1.168l1.182,0.672
		c-0.781,1.199-1.947,1.807-3.516,1.807c-1.269,0-2.31-0.399-3.105-1.186c-0.78-0.795-1.186-1.807-1.186-3.023
		c0-1.196,0.385-2.207,1.17-3.006c0.783-0.799,1.791-1.201,3.022-1.201c1.168,0,2.129,0.416,2.863,1.25
		c0.75,0.814,1.121,1.808,1.121,2.974c0,0.209-0.016,0.418-0.047,0.625L99.07,55.145L99.07,55.145z M99.07,53.927h5.344
		c-0.24-1.516-1.293-2.319-2.574-2.319C100.352,51.607,99.313,52.521,99.07,53.927z"/>
	<path fill="#FFFFFF" d="M113.047,50.504v1.347h-2.719v6.655h-1.393V51.85h-2.732v-1.347H113.047z"/>
	<path fill="#FFFFFF" d="M114.916,55.145c0.271,1.424,1.373,2.258,2.892,2.258c1.059,0,1.826-0.385,2.309-1.168l1.185,0.672
		c-0.785,1.199-1.956,1.807-3.521,1.807c-1.268,0-2.307-0.399-3.104-1.186c-0.783-0.795-1.183-1.807-1.183-3.023
		c0-1.196,0.381-2.207,1.166-3.006s1.791-1.201,3.021-1.201c1.172,0,2.131,0.416,2.865,1.25c0.755,0.814,1.119,1.808,1.119,2.974
		c0,0.209-0.016,0.418-0.045,0.625L114.916,55.145L114.916,55.145z M114.916,53.927h5.343c-0.238-1.516-1.296-2.319-2.579-2.319
		C116.189,51.607,115.154,52.521,114.916,53.927z"/>
	<path fill="#FFFFFF" d="M129.064,50.504h1.123v8.002h-1.375v-5.618l-4.437,5.618h-1.117v-8.002h1.375v5.617L129.064,50.504z
		 M124.572,49.307V48.09h4.318v1.218H124.572z"/>
	<path fill="#FFFFFF" d="M138.963,50.504v8.002h-1.393V51.85h-3.15v3.264c0,2.623-1.104,3.568-3.024,3.393v-1.313
		c1.088,0.145,1.635-0.4,1.635-2.111v-4.576h5.933V50.504z"/>
	<path fill="#FFFFFF" d="M146.877,50.504h1.117v8.002h-1.373v-5.618l-4.436,5.618h-1.117v-8.002h1.375v5.617L146.877,50.504z"/>
	<path fill="#FFFFFF" d="M155.634,50.504h1.395v8.002h-1.395V55.16h-4.144v3.346h-1.387v-8.002h1.387v3.33h4.144V50.504z"/>
	<path fill="#FFFFFF" d="M164.377,50.504v1.347h-3.854v6.655h-1.396v-8.002H164.377z"/>
	<path fill="#FFFFFF" d="M176.304,57.177h1.316v3.472h-1.379v-2.144h-6.654v-8.002h1.39v6.674h3.938v-6.674h1.391L176.304,57.177
		L176.304,57.177z"/>
	<path fill="#FFFFFF" d="M179.754,55.145c0.275,1.424,1.377,2.258,2.896,2.258c1.061,0,1.826-0.385,2.307-1.168l1.185,0.672
		c-0.781,1.199-1.951,1.807-3.521,1.807c-1.262,0-2.303-0.399-3.104-1.186c-0.781-0.795-1.187-1.807-1.187-3.023
		c0-1.196,0.388-2.207,1.17-3.006c0.787-0.799,1.793-1.201,3.025-1.201c1.168,0,2.127,0.416,2.862,1.25
		c0.753,0.814,1.117,1.808,1.117,2.974c0,0.209-0.01,0.418-0.043,0.625L179.754,55.145L179.754,55.145z M179.754,53.927h5.347
		c-0.24-1.516-1.298-2.319-2.576-2.319C181.035,51.607,179.994,52.521,179.754,53.927z"/>
	<path fill="#FFFFFF" d="M193.635,50.504h1.392v8.002h-1.392V55.16h-4.145v3.346h-1.39v-8.002h1.391v3.33h4.145L193.635,50.504
		L193.635,50.504z"/>
	<path fill="#FFFFFF" d="M203.082,50.504v1.347h-2.721v6.655h-1.391V51.85h-2.738v-1.347H203.082z"/>
	<path fill="#FFFFFF" d="M211.57,51.529c0.783,0.813,1.186,1.807,1.186,2.975s-0.401,2.177-1.186,2.992
		c-0.784,0.816-1.744,1.217-2.861,1.217c-1.33,0-2.338-0.528-3.026-1.584v4.576h-1.394V50.504h1.394v1.379
		c0.688-1.059,1.696-1.586,3.026-1.586C209.826,50.297,210.787,50.713,211.57,51.529z M210.549,56.555
		c0.541-0.563,0.816-1.232,0.816-2.052c0-0.815-0.275-1.487-0.816-2.032c-0.545-0.56-1.217-0.83-2.018-0.83
		c-0.818,0-1.484,0.271-2.027,0.83c-0.547,0.545-0.821,1.217-0.821,2.032c0,0.818,0.274,1.488,0.821,2.052
		c0.543,0.541,1.209,0.815,2.027,0.815C209.332,57.371,210.004,57.096,210.549,56.555z"/>
</g>
</svg>
